<svg xmlns="http://www.w3.org/2000/svg" viewBox="0 0 410.67 350.15"><defs><style>.cls-1{fill:#383535;}.cls-2{fill:#e0e0e0;}.cls-3{fill:#f0f0f0;}.cls-4{fill:#383535;}.cls-5,.cls-9{fill:#fff;}.cls-6{fill:#262424;}.cls-7,.cls-8{fill:#fc581f;}.cls-8,.cls-9{opacity:0.3;}.cls-10{opacity:0.2;}</style></defs><g id="Слой_2" data-name="Слой 2"><g id="Background_Complete" data-name="Background Complete"><path class="cls-1" d="M174.51,123.47l.45-13.14-8.07-2.64a77.89,77.89,0,0,0-2.15-13.19l6.84-5-4.65-12.34-8.46.68a77,77,0,0,0-7-11.35l4.38-7.31-9-9.61-7.56,3.87a82.29,82.29,0,0,0-10.84-7.83l1.23-8.4-12-5.44-5.5,6.44a81.36,81.36,0,0,0-13-3l-2.05-8.23L83.9,26.43,81.3,34.5a81.5,81.5,0,0,0-13.2,2.15L63,29.85,50.68,34.46l.68,8.46A81.05,81.05,0,0,0,40,50l-7.28-4.38-9.64,9L27,62.18A77.38,77.38,0,0,0,19.16,73l-8.39-1.26-5.48,12,6.47,5.5a79.2,79.2,0,0,0-3,13L.45,104.35,0,117.49l8.1,2.64a78.4,78.4,0,0,0,2.15,13.19l-6.83,5.05,4.64,12.34,8.46-.68a77.31,77.31,0,0,0,7,11.35l-4.38,7.31,9,9.61,7.56-3.87a80.41,80.41,0,0,0,10.84,7.84l-1.26,8.39,12,5.44,5.53-6.44a80.54,80.54,0,0,0,13,3.05l2,8.23,13.17.45,2.61-8.07a80.48,80.48,0,0,0,13.19-2.15l5,6.8,12.35-4.61-.65-8.45A83.5,83.5,0,0,0,135,177.83l7.28,4.38,9.64-9-3.87-7.6a76.58,76.58,0,0,0,7.8-10.84l8.4,1.26,5.47-12-6.47-5.49a77.61,77.61,0,0,0,3.05-13ZM85.71,166a52.16,52.16,0,1,1,53.9-50.33A52.15,52.15,0,0,1,85.71,166Z"/><path class="cls-1" d="M399.39,80l3.32-3.09-1.33-2.61a27.6,27.6,0,0,0,2.69-3.74L407,71l1.88-4.15L406.62,65a26.84,26.84,0,0,0,1.05-4.49l2.85-.71.15-4.54-2.79-.9a28.3,28.3,0,0,0-.73-4.56L409.49,48l-1.59-4.26L405,44a27.57,27.57,0,0,0-2.43-3.91l1.51-2.51L401,34.26l-2.6,1.33a28.33,28.33,0,0,0-3.75-2.69L395,30l-4.14-1.88L389,30.34a28.2,28.2,0,0,0-4.5-1l-.7-2.84-4.54-.17-.91,2.8a27.14,27.14,0,0,0-4.55.74l-1.74-2.35-4.26,1.59.24,2.92a27.12,27.12,0,0,0-3.92,2.43l-2.52-1.51L358.3,36l1.33,2.62a26.84,26.84,0,0,0-2.69,3.75l-2.9-.44-1.88,4.14,2.23,1.9a26.73,26.73,0,0,0-1.05,4.48l-2.85.72-.15,4.54,2.79.9a28.36,28.36,0,0,0,.73,4.55l-2.35,1.74,1.6,4.25,2.92-.22a28.25,28.25,0,0,0,2.43,3.92L357,75.35l3.1,3.33,2.6-1.34A28.41,28.41,0,0,0,366.4,80L366,82.92l4.13,1.89,1.9-2.22a29.06,29.06,0,0,0,4.5,1l.7,2.85,4.54.16.91-2.8a26.16,26.16,0,0,0,4.55-.74l1.74,2.36,4.26-1.59L393,81a27.67,27.67,0,0,0,3.92-2.43ZM375.77,60.88a6.47,6.47,0,1,1,9.15.32A6.47,6.47,0,0,1,375.77,60.88Z"/><path class="cls-1" d="M278.42,214.93l-10.34-7.14v0A57.87,57.87,0,0,0,263.92,197l2.65-10.4-15-16.06L241,172.46a57,57,0,0,0-10.46-4.88h0l-6.42-10.81-22-.75L195,166.35h0a57.05,57.05,0,0,0-10.76,4.15l-10.39-2.65-16.07,15,1.93,10.54h0a56.27,56.27,0,0,0-4.89,10.49L144,210.32l-.75,22,10.35,7.14a54.52,54.52,0,0,0,4.15,10.82h0l-2.64,10.36,15,16.07,10.49-1.92a57.91,57.91,0,0,0,10.55,4.89h0l6.41,10.8,22,.75,7.14-10.34a57.64,57.64,0,0,0,10.85-4.15h0l10.35,2.64,16.06-15L262,253.81a56,56,0,0,0,4.89-10.49h0l10.81-6.42ZM210,248.32a24.71,24.71,0,1,1,25.55-23.86A24.72,24.72,0,0,1,210,248.32Z"/><path class="cls-1" d="M302,152.55h-.07L284.59,152a2.09,2.09,0,0,1-1.74-1l-4.66-7.85a48,48,0,0,1-7.29-3.38l-7.5,1.37a2.11,2.11,0,0,1-1.93-.63l-11.82-12.67a2.1,2.1,0,0,1-.5-2l1.88-7.41a47.32,47.32,0,0,1-2.86-7.47l-7.53-5.2a2.13,2.13,0,0,1-.91-1.81l.6-17.32a2.09,2.09,0,0,1,1-1.74l7.86-4.67a47.12,47.12,0,0,1,3.37-7.25l-1.38-7.53a2.16,2.16,0,0,1,.64-1.93l12.67-11.82a2.13,2.13,0,0,1,2-.51l7.43,1.9a47.51,47.51,0,0,1,7.45-2.87l5.2-7.53a2.07,2.07,0,0,1,1.81-.91l17.32.6a2.11,2.11,0,0,1,1.74,1l4.67,7.87a46.46,46.46,0,0,1,7.23,3.37l7.55-1.39a2.12,2.12,0,0,1,1.93.64l11.82,12.67a2.1,2.1,0,0,1,.5,2l-1.89,7.44a47,47,0,0,1,2.87,7.44l7.52,5.2a2.11,2.11,0,0,1,.92,1.81l-.6,17.32a2.09,2.09,0,0,1-1,1.74l-7.87,4.67a45.32,45.32,0,0,1-3.37,7.25l1.38,7.53a2.11,2.11,0,0,1-.63,1.92l-12.67,11.83a2.1,2.1,0,0,1-2,.5l-7.4-1.88a48.1,48.1,0,0,1-7.49,2.87l-5.19,7.51A2.11,2.11,0,0,1,302,152.55Zm-16.09-4.78,15,.52,5-7.2a2.15,2.15,0,0,1,1.19-.84,43.58,43.58,0,0,0,8.15-3.13h0a2.09,2.09,0,0,1,1.46-.16l7,1.79,11-10.24-1.31-7.18a2.11,2.11,0,0,1,.27-1.47,42.21,42.21,0,0,0,3.65-7.83,2.11,2.11,0,0,1,.94-1.17l7.52-4.47.52-15-7.21-5a2.09,2.09,0,0,1-.8-1.07.84.84,0,0,1,0-.17,42.91,42.91,0,0,0-3.11-8,2.11,2.11,0,0,1-.17-1.48l1.81-7.08-10.25-11-7.19,1.31a2.06,2.06,0,0,1-1.46-.26A42.74,42.74,0,0,0,310,55a2.19,2.19,0,0,1-.44-.2,2.13,2.13,0,0,1-.71-.72l-4.47-7.53-15-.52-5,7.21a2.08,2.08,0,0,1-1.24.85,42.28,42.28,0,0,0-8.05,3.11,2.17,2.17,0,0,1-1.48.17l-7.08-1.81-11,10.25L256.89,73a2.08,2.08,0,0,1-.19,1.32l-.09.17A42.52,42.52,0,0,0,253,82.3a2.1,2.1,0,0,1-.91,1.12l-7.53,4.47-.52,15,7.21,5a2.09,2.09,0,0,1,.84,1.19,42.32,42.32,0,0,0,3.11,8.11,2,2,0,0,1,.17.46,2,2,0,0,1,0,1l-1.8,7,10.25,11,7.14-1.31a2.19,2.19,0,0,1,1.46.26,42.86,42.86,0,0,0,7.88,3.67,2.09,2.09,0,0,1,1.18.93ZM310.67,53h0Zm-15.51,75.85-1.11,0a31.53,31.53,0,1,1,1.11,0Zm0-59.1a27.55,27.55,0,1,0,.95,0Z"/><polygon class="cls-2" points="341.87 27.91 334.7 25.99 332.77 18.82 335.58 16.01 338.55 22.14 344.68 25.11 341.87 27.91"/><path class="cls-2" d="M342.32,23.11a3.35,3.35,0,1,0-4.74-4.73L341.15,13l4.79,2.42,1.05,5Z"/><path class="cls-3" d="M335,16.57l5.25-5.25,7.18,1.92,1.92,7.18-5.25,5.25-7.18-1.92Zm9.54,4.3a3.34,3.34,0,1,0-4.73,0A3.35,3.35,0,0,0,344.56,20.87Z"/><polygon class="cls-2" points="48.66 219.3 52.5 218.27 53.54 214.42 52.03 212.91 50.44 216.2 47.15 217.79 48.66 219.3"/><path class="cls-2" d="M48.42,216.72A1.8,1.8,0,1,1,51,214.18L49,211.31l-2.57,1.3-.56,2.7Z"/><path class="cls-3" d="M52.33,213.21l-2.82-2.82-3.85,1-1,3.85,2.82,2.82,3.85-1Zm-5.12,2.31A1.8,1.8,0,1,1,49.75,213a1.8,1.8,0,0,1-2.54,2.54Z"/><path class="cls-3" d="M34.8,8.25,38,11.45a2.15,2.15,0,0,0,3,0h0a2.15,2.15,0,0,0,0-3l-3.2-3.19a2.14,2.14,0,0,0-3,0h0A2.12,2.12,0,0,0,34.8,8.25Z"/><path class="cls-2" d="M32.55.3a4.59,4.59,0,0,1,6,2.58,4.61,4.61,0,0,1-3,5.79,4.61,4.61,0,0,1-6-2.59A4.59,4.59,0,0,1,32.55.3Z"/><rect class="cls-3" x="33.36" y="-0.57" width="1.37" height="10.1" transform="translate(41.34 38.04) rotate(-109.76)"/></g><g id="Shadow"><ellipse id="_Path_" data-name="&lt;Path&gt;" class="cls-4" cx="208.43" cy="338.83" rx="193.89" ry="11.32"/></g><g id="Oops_" data-name="Oops!"><path class="cls-5" d="M45.15,43.24c-1-4.41-.55-8.11,1.34-11.13s5-5,9.41-6,8.23-.61,11.2,1.25,5,5,6,9.3a17,17,0,0,1,.17,8.12,11.64,11.64,0,0,1-3.53,5.76,15.65,15.65,0,0,1-7.11,3.39,17.68,17.68,0,0,1-7.89.26,11.65,11.65,0,0,1-5.89-3.5A15.63,15.63,0,0,1,45.15,43.24Zm8.34-1.86c.62,2.72,1.57,4.57,2.86,5.53a5.9,5.9,0,0,0,8.29-1.85q1.08-2.09,0-6.61-.87-3.81-2.8-5.22a5.39,5.39,0,0,0-4.57-.81,5.2,5.2,0,0,0-3.64,2.71Q52.56,37.26,53.49,41.38Z"/><path class="cls-5" d="M77,39.94a10,10,0,0,1,1.34-8.06,11.56,11.56,0,0,1,7.49-4.75q5.88-1.34,9.65,1.39a10.11,10.11,0,0,1,3.94,6.21,10,10,0,0,1-1.31,8.06q-2.34,3.57-7.62,4.76a11.83,11.83,0,0,1-8.16-.66A9.81,9.81,0,0,1,77,39.94Zm7.5-1.73a6.06,6.06,0,0,0,1.94,3.63,3.55,3.55,0,0,0,5.32-1.19,6.24,6.24,0,0,0,.14-4.19A5.92,5.92,0,0,0,90,32.91a3.37,3.37,0,0,0-2.88-.65,3.46,3.46,0,0,0-2.41,1.88A5.9,5.9,0,0,0,84.53,38.21Z"/><path class="cls-5" d="M107,51.16l-6.13-27,7-1.59.65,2.89a9.76,9.76,0,0,1,2.11-3.08,7.84,7.84,0,0,1,3.43-1.68,7.15,7.15,0,0,1,6.74,1.62,12.68,12.68,0,0,1,3.83,6.92c.74,3.26.53,5.91-.64,8a7.85,7.85,0,0,1-5.32,3.91,8.58,8.58,0,0,1-3.29.13,7.8,7.8,0,0,1-3-1.17l2.12,9.33Zm3.61-18.86a5.25,5.25,0,0,0,1.75,3.22,3.21,3.21,0,0,0,2.73.56,2.8,2.8,0,0,0,1.94-1.57,6,6,0,0,0,0-3.86,5.55,5.55,0,0,0-1.71-3.27,2.87,2.87,0,0,0-2.5-.61,3.1,3.1,0,0,0-2.13,1.67A5.66,5.66,0,0,0,110.63,32.3Z"/><path class="cls-5" d="M127.87,32.89l7.27-2.39a3.75,3.75,0,0,0,1.72,1.6,3.88,3.88,0,0,0,2.34.07A3.83,3.83,0,0,0,141.39,31a1.46,1.46,0,0,0,.37-1.34,1.41,1.41,0,0,0-1.13-1.06,15.47,15.47,0,0,0-3.39,0,33.73,33.73,0,0,1-5.71,0,5.8,5.8,0,0,1-3-1.37,5.51,5.51,0,0,1-1.39-6.49,6.89,6.89,0,0,1,2.62-2.79A16.71,16.71,0,0,1,134.88,16a18.87,18.87,0,0,1,5.29-.64,6.83,6.83,0,0,1,3.15,1A8.86,8.86,0,0,1,145.86,19l-6.94,2.31a2.53,2.53,0,0,0-1.24-1.17,3.85,3.85,0,0,0-2.27-.1,3.08,3.08,0,0,0-1.74.87,1.36,1.36,0,0,0-.33,1.22,1.17,1.17,0,0,0,1,.92,12.27,12.27,0,0,0,3.35-.07,22.42,22.42,0,0,1,5.82-.08,6.25,6.25,0,0,1,3.28,1.51,5.48,5.48,0,0,1,1.67,2.85,6.26,6.26,0,0,1-.28,3.53,7.15,7.15,0,0,1-2.64,3.28,15.88,15.88,0,0,1-5.77,2.3c-3.57.82-6.23.88-8,.21A7,7,0,0,1,127.87,32.89Z"/><path class="cls-5" d="M152.28,8.16l8.21-.05,0,6.31L159,27.09l-5.07,0-1.62-12.65Zm.4,20.89,7.66-.05,0,6.78-7.66,0Z"/></g><g id="_404" data-name="404"><path class="cls-6" d="M87.11,94.17a.57.57,0,0,1-.18,0c-4.5-1.74-7.19-3.45-8.59-5.49a5.16,5.16,0,0,1-3.23-.45,6.43,6.43,0,0,1-2.78-2.62A2.59,2.59,0,0,1,69.9,86a6.21,6.21,0,0,1-3-2.42A2.22,2.22,0,0,1,65.4,84c-3-.24-7-6.16-7.29-12.46a.49.49,0,0,1,.47-.52.5.5,0,0,1,.53.47c.27,6,4.11,11.33,6.37,11.52a1.29,1.29,0,0,0,.93-.28,12.26,12.26,0,0,1-1-9.41c.86-3,1.62-4.18,2.53-4,1.72.43,1.5,7,.58,11.29a6,6,0,0,1-.84,2.18A5.4,5.4,0,0,0,70.2,85a1.59,1.59,0,0,0,1.68-.34c-.79-1.94-.95-4.58.11-7.94,1.41-4.43,2-4.55,2.31-4.62a.65.65,0,0,1,.65.22c.92,1-.18,7.92-1.35,11.32A5,5,0,0,1,73,84.8a5.58,5.58,0,0,0,2.5,2.5,4.38,4.38,0,0,0,2.27.43,5.89,5.89,0,0,1-.24-.58c-.8-2.14-.41-4.62,1.18-7.57,1.06-2,1.92-2.88,2.71-2.88h0a1.12,1.12,0,0,1,1,.67c.87,1.6.24,6.91-1.49,9.55a3.89,3.89,0,0,1-1.61,1.4c1.34,1.76,3.88,3.31,7.94,4.89a.5.5,0,0,1,.29.64A.51.51,0,0,1,87.11,94.17ZM81.46,77.7s-.57,0-1.83,2.35c-1.44,2.68-1.81,4.89-1.13,6.76a6.68,6.68,0,0,0,.31.67,3,3,0,0,0,1.32-1.11c1.4-2.14,2.07-6.54,1.55-8.25C81.57,77.76,81.46,77.7,81.46,77.7Zm-7.17-4.21A22.65,22.65,0,0,0,73,77a11.31,11.31,0,0,0-.39,6.55l.1-.25A33.56,33.56,0,0,0,74.29,73.49ZM67.7,70.34c-.17.16-.65.78-1.35,3.22a11.27,11.27,0,0,0,.73,8.25,7,7,0,0,0,.45-1.41C68.56,75.49,68.26,71.05,67.7,70.34Z"/><path class="cls-6" d="M125.13,146.59a9,9,0,0,1-4.56-1.19.5.5,0,0,1-.18-.68.51.51,0,0,1,.69-.18c3.56,2.09,8.17.63,9.12-.9a.87.87,0,0,0,.15-.67,8.12,8.12,0,0,1-5.13-1.46c-2.55-1.59-2.74-2.07-2.73-2.44a.62.62,0,0,1,.35-.53c1-.5,5.5,1.58,7.38,2.81a3.28,3.28,0,0,1,.62.52,3.58,3.58,0,0,0,1.91-1.14,2.8,2.8,0,0,0,.58-1.12l-.2,0c-1.6.16-3.2-.52-4.91-2.1-1.17-1.09-1.63-1.84-1.48-2.43a.91.91,0,0,1,.72-.65c1.39-.35,4.8,1.11,6.2,2.64a2.9,2.9,0,0,1,.64,1.18c1.3-.61,2.68-2,4.32-4.27a.5.5,0,0,1,.81.58c-1.89,2.64-3.47,4.14-5.05,4.75a3.69,3.69,0,0,1-.87,2,4.44,4.44,0,0,1-2.18,1.41,1.83,1.83,0,0,1-.28,1.39C130.21,145.53,127.79,146.59,125.13,146.59Zm-.89-6.94c.34.25.82.58,1.51,1a8.06,8.06,0,0,0,3.6,1.32A25.52,25.52,0,0,0,124.24,139.65Zm3.49-4.25a4.33,4.33,0,0,0,1.17,1.39c1.49,1.38,2.84,2,4.13,1.85l.32,0a1.79,1.79,0,0,0-.43-.83C131.51,136.22,128.42,135.24,127.73,135.4Z"/><path class="cls-7" d="M138.38,145.22l-15.59,2.83L108.65,70.83,78.58,76.3l-49,87L34.85,192l62.84-11.41,4.3,23.48,30.07-5.46-4.3-23.48,15.58-2.83ZM59.53,159.54l26-45.57,7.24,39.54Z"/><path class="cls-7" d="M263.86,65.58a58.66,58.66,0,0,0-3.19-14.21,46,46,0,0,0-7-12.19A40.3,40.3,0,0,0,241,28.81q-8-4.39-21.22-6.11Q192.32,19.11,177,32.44t-20.2,51a140.05,140.05,0,0,0-1,28.34q1,13,4.78,20.94a43.79,43.79,0,0,0,14.65,17.77q9.47,6.65,25.95,8.79,29.4,3.83,43.57-11.29t18.81-51.1A129.47,129.47,0,0,0,263.86,65.58Z"/><path class="cls-6" d="M210.2,149c-2.41-.08-5-.29-7.61-.64-9.15-1.19-16.24-3.51-21.05-6.89a32.58,32.58,0,0,1-11-13.4l-.05-.11c-1.93-4-3.18-9.75-3.74-17a129.75,129.75,0,0,1,.92-26.11c3.57-27.72,10.94-39.28,16.5-44.1,6.48-5.62,15.22-8.16,26.73-7.77,2.36.08,4.85.29,7.42.63,7.39,1,13.23,2.59,17.37,4.85A29.68,29.68,0,0,1,245,46a35.25,35.25,0,0,1,5.35,9.27,47.87,47.87,0,0,1,2.57,11.55,119.78,119.78,0,0,1-.29,28.73c-2.78,21.54-8.13,36.67-15.92,45-5.78,6.16-14.46,9-26.52,8.54Z"/><path class="cls-7" d="M229.77,65.88l.13-3.79-2.33-.76a21.83,21.83,0,0,0-.62-3.8l2-1.46-1.34-3.55-2.44.19a22.88,22.88,0,0,0-2-3.27l1.26-2.11-2.59-2.77-2.18,1.12a23.92,23.92,0,0,0-3.13-2.26l.35-2.42-3.45-1.57-1.59,1.86a23.26,23.26,0,0,0-3.75-.88L207.45,38l-3.8-.13-.75,2.32a24.89,24.89,0,0,0-3.8.62l-1.47-2-3.55,1.33.19,2.44a22.94,22.94,0,0,0-3.27,2l-2.1-1.26L186.12,46l1.12,2.19A22.58,22.58,0,0,0,185,51.34L182.57,51,181,54.43,182.86,56a23,23,0,0,0-.88,3.75l-2.38.6-.13,3.79,2.33.76a23.72,23.72,0,0,0,.62,3.8l-2,1.45,1.34,3.56,2.44-.2a22.11,22.11,0,0,0,2,3.28L185,78.91l2.59,2.77,2.18-1.11a24.18,24.18,0,0,0,3.13,2.26l-.37,2.41L196,86.81l1.6-1.85a24.1,24.1,0,0,0,3.75.88l.59,2.37,3.8.13.75-2.33a22.65,22.65,0,0,0,3.8-.62l1.45,2L215.29,86l-.19-2.43a24,24,0,0,0,3.28-2l2.09,1.26,2.78-2.59L222.14,78a22.48,22.48,0,0,0,2.25-3.12l2.42.36,1.58-3.46-1.87-1.58a23.26,23.26,0,0,0,.88-3.75Zm-25.6,12.27a15,15,0,1,1,15.54-14.51A15,15,0,0,1,204.17,78.15Z"/><path class="cls-8" d="M245.56,135.46l.27-2.56-1.53-.62a16,16,0,0,0-.23-2.6l1.4-.88-.71-2.47h-1.67A14,14,0,0,0,241.9,124l.95-1.36-1.61-2-1.53.64a14.55,14.55,0,0,0-2-1.67l.37-1.63-2.25-1.24L234.66,118a14.73,14.73,0,0,0-2.47-.78l-.29-1.64-2.55-.29-.63,1.54a15,15,0,0,0-2.59.24l-.89-1.41-2.47.72V118a16.34,16.34,0,0,0-2.31,1.2l-1.36-1-2,1.6.63,1.53a18.05,18.05,0,0,0-1.67,2l-1.61-.36-1.24,2.25,1.18,1.16a16,16,0,0,0-.79,2.49l-1.63.27-.28,2.55,1.54.64a14.73,14.73,0,0,0,.22,2.58l-1.41.89.72,2.47h1.67a15.17,15.17,0,0,0,1.19,2.3l-1,1.36,1.61,2,1.54-.65a14.55,14.55,0,0,0,2,1.67l-.37,1.63,2.25,1.23,1.18-1.17a15.79,15.79,0,0,0,2.48.77l.28,1.64,2.55.28.63-1.53a16.2,16.2,0,0,0,2.59-.24l.89,1.41,2.46-.72v-1.66a16.34,16.34,0,0,0,2.31-1.2l1.35,1,2-1.6-.65-1.54a17.14,17.14,0,0,0,1.68-2l1.61.36,1.24-2.25-1.18-1.16a15.14,15.14,0,0,0,.78-2.48Zm-12.88-1a4.46,4.46,0,1,1-1.77-6.06A4.47,4.47,0,0,1,232.68,134.47Z"/><path class="cls-5" d="M259.72,92.24l-3-2.06h0a15.77,15.77,0,0,0-1.2-3.11l.77-3L252,79.44l-3,.56a16.88,16.88,0,0,0-3-1.41h0l-1.85-3.12-6.33-.21-2.06,3h0a16.42,16.42,0,0,0-3.11,1.2l-3-.77L224.94,83l.55,3h0a16.3,16.3,0,0,0-1.41,3L221,90.91l-.22,6.33,3,2.07a15.14,15.14,0,0,0,1.19,3.11h0l-.76,3,4.32,4.63,3-.55a16.84,16.84,0,0,0,3,1.41h0l1.85,3.11,6.33.22,2.06-3a16.11,16.11,0,0,0,3.12-1.2h0l3,.76,4.63-4.32-.56-3a15.77,15.77,0,0,0,1.41-3h0l3.12-1.85ZM240,101.87A7.12,7.12,0,1,1,247.36,95,7.13,7.13,0,0,1,240,101.87Z"/><path class="cls-7" d="M281.48,41.72l.52-1.26h0a7.31,7.31,0,0,0,1.05-.69l1.16,0,1.36-2-.45-1.08a6.18,6.18,0,0,0,.28-1.22h0l1-.92L286,32.3l-1.26-.52h0a6,6,0,0,0-.68-1l0-1.16-1.95-1.36-1.07.44h0a5.82,5.82,0,0,0-1.22-.28l-.93-1-2.34.42-.52,1.26a5.73,5.73,0,0,0-1.05.68h0l-1.16,0-1.36,1.95.44,1.07a6.12,6.12,0,0,0-.28,1.23h0l-1,.92.41,2.34,1.26.52a6.89,6.89,0,0,0,.69,1.06h0L274,39.94l2,1.36,1.07-.44a7,7,0,0,0,1.22.28h0l.92,1Zm-5.09-6.49a2.68,2.68,0,1,1,3.1,2.16A2.68,2.68,0,0,1,276.39,35.23Z"/><path class="cls-7" d="M254,35.08l-.76-.64a19.77,19.77,0,0,1,6-5l.46.88A19.29,19.29,0,0,0,254,35.08Z"/><path class="cls-7" d="M262,29.39l-.39-.92a23.92,23.92,0,0,1,11.74-1.88l-.09,1A22.83,22.83,0,0,0,262,29.39Z"/><path class="cls-7" d="M260.14,36.31l-.83-.56a16.78,16.78,0,0,1,9.87-6.39l.2,1A15.71,15.71,0,0,0,260.14,36.31Z"/><path class="cls-5" d="M193.78,132.55a.48.48,0,0,1-.36-.15l-2.1-2.16a18.31,18.31,0,0,1-3.14-.59l-3.27,1.44a.51.51,0,0,1-.48,0L179,127.42a.5.5,0,0,1-.22-.42l.06-3.57a17.17,17.17,0,0,1-1.77-2.67l-2.81-1.09a.53.53,0,0,1-.31-.37l-1.3-6.44a.5.5,0,0,1,.14-.45l2.16-2.1a17.84,17.84,0,0,1,.59-3.15l-1.44-3.26a.48.48,0,0,1,0-.48l3.63-5.48a.44.44,0,0,1,.42-.22l3.56,0A18.2,18.2,0,0,1,184.38,96l1.09-2.81a.51.51,0,0,1,.37-.31l6.43-1.3a.49.49,0,0,1,.46.14l2.1,2.16a17.82,17.82,0,0,1,3.15.58L201.24,93a.51.51,0,0,1,.48,0l5.48,3.62a.53.53,0,0,1,.22.43l-.06,3.56a17.26,17.26,0,0,1,1.77,2.68l2.81,1.09a.51.51,0,0,1,.31.36l1.3,6.44a.52.52,0,0,1-.14.46l-2.16,2.1a18.08,18.08,0,0,1-.59,3.14l1.44,3.27a.48.48,0,0,1,0,.48l-3.63,5.47a.52.52,0,0,1-.42.23l-3.56-.06a17.2,17.2,0,0,1-2.68,1.76l-1.09,2.81a.49.49,0,0,1-.37.31l-6.43,1.31Zm-5.64-3.93.14,0a17.57,17.57,0,0,0,3.31.62.48.48,0,0,1,.32.15l2,2.09,5.91-1.19,1.06-2.73a.47.47,0,0,1,.23-.27,16.52,16.52,0,0,0,2.82-1.85.45.45,0,0,1,.32-.11l3.47.05,3.33-5-1.41-3.18a.57.57,0,0,1,0-.34,17.37,17.37,0,0,0,.62-3.31.48.48,0,0,1,.15-.32l2.1-2-1.2-5.9-2.73-1.06a.47.47,0,0,1-.26-.24,16.55,16.55,0,0,0-1.85-2.8.52.52,0,0,1-.12-.33l.06-3.47-5-3.33-3.18,1.4a.5.5,0,0,1-.34,0,17.17,17.17,0,0,0-3.32-.61.53.53,0,0,1-.32-.15l-2-2.1-5.91,1.2-1.05,2.72a.53.53,0,0,1-.24.27,16.92,16.92,0,0,0-2.82,1.85.44.44,0,0,1-.32.12l-3.47-.06-3.33,5,1.4,3.18a.5.5,0,0,1,0,.43,18.13,18.13,0,0,0-.58,3.23.5.5,0,0,1-.15.32l-2.1,2,1.2,5.9,2.73,1.06a.49.49,0,0,1,.27.26,16.83,16.83,0,0,0,1.84,2.79.5.5,0,0,1,.12.33l-.06,3.47,5,3.33,3.19-1.41A.45.45,0,0,1,188.14,128.62Zm4.92-3.24A13.32,13.32,0,0,1,182,104.7h0a13.33,13.33,0,1,1,11.09,20.68ZM182.8,105.26a12.33,12.33,0,0,0,3.47,17.08,12.33,12.33,0,1,0-3.47-17.08Z"/><path class="cls-7" d="M384.26,154.24l-15.69-2.12L379,74.31l-30.29-4.08-73.45,67.62-3.86,28.93,63.29,8.55L331.49,199l30.28,4.08,3.15-23.66,15.7,2.12Zm-79.42-10.72L343.6,108.2,338.28,148Z"/><path class="cls-6" d="M352.57,202.33h-.09a.51.51,0,0,1-.4-.59L375.4,73.81a.51.51,0,0,1,.58-.4.5.5,0,0,1,.4.58L353.06,201.92A.51.51,0,0,1,352.57,202.33Z"/><path class="cls-6" d="M373.26,76a.82.82,0,0,1-1.63,0,.82.82,0,1,1,1.63,0Z"/><path class="cls-6" d="M369.93,93.26a.81.81,0,0,1-.84.79.82.82,0,1,1,.05-1.63A.81.81,0,0,1,369.93,93.26Z"/><path class="cls-6" d="M366.6,110.56a.82.82,0,1,1-.79-.84A.81.81,0,0,1,366.6,110.56Z"/><path class="cls-6" d="M360.05,128.57a.82.82,0,0,1-.85.79.82.82,0,1,1,.85-.79Z"/><path class="cls-6" d="M359.93,145.16a.82.82,0,1,1-1.63,0,.82.82,0,0,1,1.63,0Z"/><path class="cls-6" d="M356.6,162.47a.82.82,0,0,1-.84.79.83.83,0,0,1-.8-.85.82.82,0,0,1,.85-.79A.81.81,0,0,1,356.6,162.47Z"/><path class="cls-6" d="M353.27,179.77a.82.82,0,1,1-.79-.85A.81.81,0,0,1,353.27,179.77Z"/><path class="cls-6" d="M349.94,197.07a.82.82,0,0,1-1.64-.06.82.82,0,1,1,1.64.06Z"/><path class="cls-6" d="M359.23,129.05a.5.5,0,0,1-.49-.4.49.49,0,0,1,.38-.59l2.49-.54a.51.51,0,0,1,.59.39.49.49,0,0,1-.38.59l-2.49.54Z"/><path class="cls-6" d="M367.52,119.83a82.82,82.82,0,0,0-3,9.36c-.76,3.54-.8,11.43-.8,11.43"/><path class="cls-6" d="M363.73,141.12h0a.5.5,0,0,1-.5-.5c0-.33,0-8,.81-11.53a82.74,82.74,0,0,1,3-9.44.51.51,0,0,1,.65-.28.5.5,0,0,1,.29.64,80.74,80.74,0,0,0-3,9.29c-.74,3.44-.79,11.24-.79,11.32A.5.5,0,0,1,363.73,141.12Z"/></g><g id="Character"><path class="cls-6" d="M180.89,227.43c1.38-22.4-1.17-63.12,40.94-57.73,45.14,5.77,32.22,58.55,32.22,58.55Z"/><circle class="cls-5" cx="209.95" cy="195.59" r="18.38"/><path class="cls-6" d="M212.36,177.25c-8.7-1.49-18,4.93-18.93,11.43l34.51,3.17C226.72,184.44,219.27,178.43,212.36,177.25Z"/><path class="cls-6" d="M224,195.13c-.25,4.81-2.87,8.58-5.85,8.43s-5.2-4.18-4.95-9,2.86-8.57,5.84-8.42S224.26,190.33,224,195.13Z"/><path class="cls-7" d="M210,215a19.38,19.38,0,1,1,19.37-19.38A19.4,19.4,0,0,1,210,215Zm0-36.75a17.38,17.38,0,1,0,17.37,17.37A17.4,17.4,0,0,0,210,178.22Z"/><path class="cls-9" d="M248.92,226.87h-.12a.51.51,0,0,1-.37-.61c0-.13,3.22-13.69-.09-27.4a.5.5,0,0,1,.37-.6.48.48,0,0,1,.6.36c3.37,13.95.13,27.74.09,27.88A.49.49,0,0,1,248.92,226.87Z"/><path class="cls-9" d="M246.13,191.35a.49.49,0,0,1-.45-.29,35.56,35.56,0,0,0-4.74-7.66.5.5,0,1,1,.77-.63,36.9,36.9,0,0,1,4.88,7.87.5.5,0,0,1-.25.66A.41.41,0,0,1,246.13,191.35Z"/><path class="cls-6" d="M87.17,332.51H86.8a5,5,0,1,1,.27-10h.1c2.89,0,9.84-3.51,24.37-26.43a5,5,0,0,1,7.51-1.09,207.34,207.34,0,0,0,37.15,25.48,5,5,0,1,1-4.53,8.91,213.7,213.7,0,0,1-34.8-23.14C104.69,324.56,95.65,332.51,87.17,332.51Z"/><path class="cls-6" d="M118.1,294.09l-.42,0a3,3,0,0,1-2.55-3.39c.71-5-.17-23.63-6.47-38.13a3,3,0,0,1,1.06-3.67c13.7-9.34,42.87-10.46,44.11-10.5a3,3,0,0,1,.21,6c-.27,0-25.78,1-38.89,8.2C120.73,267,122,285,121.07,291.52A3,3,0,0,1,118.1,294.09Z"/><path class="cls-7" d="M123.14,290.21c-2-4.71-11-4.17-16.26-.14-2.83,2.15-6.65,8.64-7,11a3.55,3.55,0,0,0,4,4.24C107.3,305,112,300,112,300c-3.15,3.09.91,5.27,7,.8C122.38,298.31,125.38,295.48,123.14,290.21Z"/><path class="cls-6" d="M295.14,228.75a.34.34,0,0,1-.14,0,.49.49,0,0,1-.34-.61c1.33-4.64,2.79-7.48,4.7-9.06a5.21,5.21,0,0,1,.15-3.25,6.43,6.43,0,0,1,2.36-3,2.56,2.56,0,0,1-.59-2.38,6.24,6.24,0,0,1,2.14-3.16,2.35,2.35,0,0,1-.57-1.51c0-3,5.51-7.52,11.76-8.37a.49.49,0,0,1,.57.42.51.51,0,0,1-.43.57c-5.94.81-10.92,5.11-10.9,7.38a1.35,1.35,0,0,0,.36.9,12.24,12.24,0,0,1,9.29-1.86c3.07.58,4.31,1.23,4.17,2.16-.27,1.76-6.81,2.12-11.19,1.6a6.24,6.24,0,0,1-2.25-.65,5.38,5.38,0,0,0-2,2.73,1.6,1.6,0,0,0,.49,1.64c1.86-1,4.47-1.36,7.92-.6,4.54,1,4.71,1.56,4.81,1.89a.68.68,0,0,1-.16.66c-1,1-7.91.53-11.4-.33a4.83,4.83,0,0,1-1.2-.45,5.52,5.52,0,0,0-2.27,2.71,4.42,4.42,0,0,0-.23,2.3l.56-.29c2.06-1,4.57-.82,7.65.5,2,.88,3,1.65,3.1,2.44a1.1,1.1,0,0,1-.57,1c-1.52,1-6.87.86-9.65-.62a3.89,3.89,0,0,1-1.53-1.48c-1.64,1.49-3,4.16-4.16,8.35A.49.49,0,0,1,295.14,228.75Zm5.42-9.33a3,3,0,0,0,1.22,1.22c2.26,1.2,6.7,1.47,8.37.8.34-.14.39-.25.39-.25s-.06-.56-2.5-1.61c-2.81-1.2-5-1.37-6.83-.52C301,219.17,300.77,219.29,300.56,219.42Zm3.34-6.57.26.07a32.72,32.72,0,0,0,9.93.75,21.78,21.78,0,0,0-3.63-1A11.4,11.4,0,0,0,303.9,212.85Zm1.26-5.62a5.89,5.89,0,0,0,1.44.32c5,.59,9.38-.1,10-.72-.17-.16-.84-.59-3.33-1.06A11.27,11.27,0,0,0,305.16,207.23Z"/><path class="cls-6" d="M165,330.84c.66-.21.44-.85-.3-.85H151.12c-25.78-2.73-43.79.93-32.44,1.79s-.8.69-9.09,3.82,61.66,3.93,68,0C183.48,332,155.83,333.77,165,330.84Z"/><polygon class="cls-7" points="261.9 334.83 144.1 330.93 139.21 216.7 278.32 219.81 261.9 334.83"/><path class="cls-6" d="M180.89,332.64a.49.49,0,0,1-.5-.45l-9.45-114.73a.5.5,0,0,1,1-.08l9.44,114.72a.49.49,0,0,1-.45.54Z"/><polygon class="cls-7" points="261.9 334.83 293.56 330.01 303.54 223.8 278.32 219.81 261.9 334.83"/><polygon class="cls-10" points="261.9 334.83 293.56 330.01 303.54 223.8 278.32 219.81 261.9 334.83"/><path class="cls-6" d="M154.17,308.91l-2.91-67.86a12.27,12.27,0,0,1,12.54-12.79l88,2a12.27,12.27,0,0,1,11.88,14L254,312.62a12.26,12.26,0,0,1-12.55,10.52L166,320.65A12.27,12.27,0,0,1,154.17,308.91Z"/><path class="cls-5" d="M163.68,249.08l13.62.43-.11,3.52-8.53-.28-.08,2.62,7.91.25-.1,3.36-7.92-.25-.1,3.24,8.78.28L177,266l-13.87-.44Z"/><path class="cls-5" d="M179.83,266.06l.53-16.45,8.47.27a12.16,12.16,0,0,1,3.59.52,3.82,3.82,0,0,1,2,1.56,4.54,4.54,0,0,1,.68,2.69,4.59,4.59,0,0,1-.66,2.34,4.53,4.53,0,0,1-1.66,1.56,6.09,6.09,0,0,1-1.8.6,5,5,0,0,1,1.3.65,4.87,4.87,0,0,1,.79.89,7.21,7.21,0,0,1,.68,1l2.31,4.85-5.75-.19-2.56-5.11a3.8,3.8,0,0,0-.88-1.3,2.19,2.19,0,0,0-1.23-.42h-.45l-.21,6.68Zm5.42-9.62,2.14.07a9.46,9.46,0,0,0,1.36-.18,1.35,1.35,0,0,0,.84-.49,1.54,1.54,0,0,0,.35-1,1.51,1.51,0,0,0-.47-1.24,3.07,3.07,0,0,0-1.88-.48l-2.23-.07Z"/><path class="cls-5" d="M197.71,266.63l.52-16.45,8.48.27a12.22,12.22,0,0,1,3.59.52,3.81,3.81,0,0,1,2,1.56,4.64,4.64,0,0,1-1.64,6.59,6.06,6.06,0,0,1-1.81.6,4.78,4.78,0,0,1,1.31.65,4.92,4.92,0,0,1,.78.89,6.43,6.43,0,0,1,.68,1l2.31,4.85-5.74-.19-2.56-5.11a3.94,3.94,0,0,0-.88-1.3,2.22,2.22,0,0,0-1.23-.42H203l-.21,6.67Zm5.42-9.62,2.14.07a8.71,8.71,0,0,0,1.36-.19,1.33,1.33,0,0,0,.84-.49,1.51,1.51,0,0,0,.35-.94,1.54,1.54,0,0,0-.47-1.24,3.08,3.08,0,0,0-1.88-.49l-2.24-.07Z"/><path class="cls-5" d="M214.75,259a7.79,7.79,0,0,1,8.77-8.25,8.63,8.63,0,0,1,6.26,2.41,8.32,8.32,0,0,1,2,6.25,10.09,10.09,0,0,1-1.12,4.7,6.88,6.88,0,0,1-2.9,2.78,9.18,9.18,0,0,1-4.6.88,10.54,10.54,0,0,1-4.58-1,7,7,0,0,1-2.87-2.9A9.38,9.38,0,0,1,214.75,259Zm5.08.19a5.52,5.52,0,0,0,.81,3.6,3.52,3.52,0,0,0,5.06.19,6.11,6.11,0,0,0,1-3.8,5.12,5.12,0,0,0-.83-3.43,3.24,3.24,0,0,0-2.51-1.15,3.11,3.11,0,0,0-2.5,1A5.56,5.56,0,0,0,219.83,259.14Z"/><path class="cls-5" d="M234.34,267.8l.52-16.46,8.48.27a12.57,12.57,0,0,1,3.59.52,3.87,3.87,0,0,1,2,1.57,4.64,4.64,0,0,1-1.64,6.59,6.08,6.08,0,0,1-1.81.59,5.08,5.08,0,0,1,1.31.65,5.32,5.32,0,0,1,.78.89,6,6,0,0,1,.68,1.05l2.31,4.84-5.74-.18L242.22,263a3.73,3.73,0,0,0-.88-1.3,2.08,2.08,0,0,0-1.23-.42l-.45,0-.21,6.68Zm5.42-9.63,2.14.07a7.38,7.38,0,0,0,1.36-.18,1.4,1.4,0,0,0,.84-.49,1.66,1.66,0,0,0-.12-2.18,3,3,0,0,0-1.88-.49l-2.24-.07Z"/><path class="cls-5" d="M242.43,295.75a1.3,1.3,0,0,1-1-.43L232.9,286l-9.23,8.44a1.32,1.32,0,0,1-1.86-.08l-8.56-9.37L204,293.38a1.31,1.31,0,0,1-1.85-.08l-8.56-9.37-9.24,8.44a1.32,1.32,0,0,1-1.85-.08L174,282.92l-9.24,8.44a1.31,1.31,0,0,1-1.77-1.94l10.21-9.33a1.3,1.3,0,0,1,1.85.09l8.56,9.37,9.24-8.44a1.29,1.29,0,0,1,1.85.08l8.56,9.37,9.24-8.44a1.31,1.31,0,0,1,1.85.08l8.56,9.37,9.24-8.44a1.32,1.32,0,0,1,1.86.08l9.44,10.34a1.32,1.32,0,0,1-.08,1.86A1.31,1.31,0,0,1,242.43,295.75Z"/><polygon class="cls-7" points="84.18 337.26 77.93 334.27 72.34 307.11 75.37 303.77 84.18 337.26"/><polygon class="cls-7" points="84.18 337.26 92.49 332.41 85.37 310.02 75.37 303.77 84.18 337.26"/><polygon class="cls-10" points="84.18 337.26 92.49 332.41 85.37 310.02 75.37 303.77 84.18 337.26"/><path class="cls-6" d="M220.38,342.2h-.69a5,5,0,0,1,.28-10c7.7.25,24-4.48,33.31-13.52a5,5,0,0,1,2.05-1.2c15.79-4.74,21.67,4.83,21.91,5.24l-8.61,5.09a1.06,1.06,0,0,0,.12.19c-.1-.14-2.34-3-9.46-1.24C247.61,337.41,229.67,342.2,220.38,342.2Z"/><polygon class="cls-7" points="219.83 348.84 201.62 347.7 200.18 314.12 224.66 315.04 219.83 348.84"/><polygon class="cls-7" points="219.83 348.84 224.09 344.61 226.72 323.67 224.66 315.04 219.83 348.84"/><polygon class="cls-10" points="219.83 348.84 224.09 344.61 226.72 323.67 224.66 315.04 219.83 348.84"/><path class="cls-6" d="M325.34,336.13a3,3,0,0,1-1.81-.61c-10.39-7.9-24.44-21.93-29.84-35.46a4.24,4.24,0,0,1-.17-.61c-2.63-15.64-5.14-48.54-5.24-49.94a3,3,0,1,1,6-.45c0,.34,2.56,33.57,5.13,49.07,5.37,13.16,19.95,26.67,27.77,32.61a3,3,0,0,1-1.82,5.39Z"/><path class="cls-6" d="M339.21,337.64c-2.32,0-4.95-1.05-7.81-3.12a3,3,0,0,1,3.51-4.86c2.48,1.79,3.83,2,4.3,2a3,3,0,0,1,0,6Z"/><path class="cls-7" d="M332.24,334.43c3.21-9.53,16.37-7.65,20.9-6.23a48.64,48.64,0,0,1,11.07,4.8c2.45,1.61,2.49,4.29-.78,5.82-4,1.89-14.16.21-14.16.21,5.24,2.3,0,6-9.21,2.36C337.07,340.22,331.1,337.93,332.24,334.43Z"/><path class="cls-6" d="M300.3,253.63c-1.2,8.1-7.9,14.07-13.36,13.27s-5.69-8-4.5-16.14,3.35-14,8.81-13.2S301.49,245.53,300.3,253.63Z"/><circle class="cls-6" cx="168.31" cy="220.47" r="0.82"/><path class="cls-6" d="M176.64,226.37a.82.82,0,1,1-.82-.82A.82.82,0,0,1,176.64,226.37Z"/><path class="cls-6" d="M177.56,323.27a.82.82,0,1,1-.82-.81A.82.82,0,0,1,177.56,323.27Z"/><path class="cls-6" d="M185.07,329.18a.82.82,0,1,1-.82-.82A.82.82,0,0,1,185.07,329.18Z"/></g><g id="Robot_Parts" data-name="Robot Parts"><path class="cls-6" d="M40.94,339a9.64,9.64,0,0,1-7.33-3.95.49.49,0,0,1,.13-.69.5.5,0,0,1,.69.12c1.87,2.7,6,4.13,7.81,3.28a1.39,1.39,0,0,0,.47-.34A6,6,0,0,1,39.18,333c-.23-1.26-.41-3,.64-3.21,1.43-.33,3.31,3.14,4,5.77a3.56,3.56,0,0,1,.13,1.34,4.49,4.49,0,0,0,1.79.15,2,2,0,0,0,1.37-.75,5.85,5.85,0,0,1-2.3-4.19c-.39-2.73-.1-3.21.2-3.44a.66.66,0,0,1,.69-.08c1.07.45,2.37,4.33,2.61,6.53a3.2,3.2,0,0,1,0,.69,3.91,3.91,0,0,0,1.35.26,4.33,4.33,0,0,0,2.41-.63,3,3,0,0,1-.41-.29c-1-.89-1.45-2.31-1.28-4.33.14-1.57.5-2.43,1.13-2.7a1.14,1.14,0,0,1,1.2.24,6.93,6.93,0,0,1,1.73,5.56A3,3,0,0,1,54,335c1.83.32,4.41-.2,6.64-.75a.51.51,0,0,1,.61.37.5.5,0,0,1-.37.6c-2.71.67-5.63,1.22-7.69.62a5.64,5.64,0,0,1-3.5,1.16,4.59,4.59,0,0,1-1.63-.31A2.83,2.83,0,0,1,45.91,338a5.54,5.54,0,0,1-2.24-.2,2.21,2.21,0,0,1-1,.89A4.16,4.16,0,0,1,40.94,339Zm-.86-8.28a4.5,4.5,0,0,0,.08,2A5.09,5.09,0,0,0,43,336.49a2.73,2.73,0,0,0-.11-.71C42.1,332.92,40.61,331,40.08,330.73Zm5.57-.87a13.26,13.26,0,0,0,.18,2.06,5.12,5.12,0,0,0,1.52,3.22A15.93,15.93,0,0,0,45.65,329.86Zm6.29-.87h0s-.38.19-.52,1.86.16,2.83.93,3.49a3.06,3.06,0,0,0,.6.38,2.26,2.26,0,0,0,.55-1,6.32,6.32,0,0,0-1.2-4.43C52.1,329,52,329,51.94,329Z"/><polygon class="cls-6" points="187.31 346.57 190.02 341.87 187.31 337.17 184.41 337.17 186.04 341.87 184.41 346.57 187.31 346.57"/><path class="cls-6" d="M184.6,344.32a2.45,2.45,0,1,1,0-4.89l-4.61-.92-1.22,3.72,2,3.14Z"/><path class="cls-7" d="M185,337.17h-5.43l-2.71,4.7,2.71,4.7H185l2.71-4.7Zm-2.71,7.15a2.45,2.45,0,1,1,2.44-2.45A2.45,2.45,0,0,1,182.28,344.32Z"/><polygon class="cls-7" points="376.32 336.86 374.31 333.37 376.32 329.88 378.48 329.88 377.26 333.37 378.48 336.86 376.32 336.86"/><path class="cls-7" d="M378.34,335.19a1.82,1.82,0,1,0,0-3.64l3.42-.68.91,2.76L381.14,336Z"/><path class="cls-6" d="M378,329.88h4l2,3.49-2,3.49h-4l-2-3.49Zm2,5.31a1.82,1.82,0,1,0-1.82-1.82A1.83,1.83,0,0,0,380.06,335.19Z"/><path class="cls-6" d="M301.38,341.49h4.52a2.14,2.14,0,0,0,2.14-2.14h0a2.14,2.14,0,0,0-2.14-2.14h-4.52a2.14,2.14,0,0,0-2.14,2.14h0A2.14,2.14,0,0,0,301.38,341.49Z"/><path class="cls-7" d="M294.16,337.45a4.46,4.46,0,1,1,2,6.19A4.6,4.6,0,0,1,294.16,337.45Z"/><rect class="cls-6" x="297.5" y="334.3" width="1.37" height="10.1" transform="translate(423.18 773.46) rotate(-154.76)"/></g></g></svg>