<svg width="60" height="61" viewBox="0 0 60 61" fill="none" xmlns="http://www.w3.org/2000/svg">
<path fill-rule="evenodd" clip-rule="evenodd" d="M51.0151 17.9716C55.7115 17.9716 59.5187 14.1209 59.5187 9.37082C59.5187 4.62073 55.7115 0.77002 51.0151 0.77002C46.3187 0.77002 42.5115 4.62073 42.5115 9.37082C42.5115 14.1209 46.3187 17.9716 51.0151 17.9716Z" fill="#FC581F"/>
<path fill-rule="evenodd" clip-rule="evenodd" d="M51.0151 38.6099C55.7115 38.6099 59.5187 34.7597 59.5187 30.0103C59.5187 25.2608 55.7115 21.4106 51.0151 21.4106C46.3187 21.4106 42.5115 25.2608 42.5115 30.0103C42.5115 34.7597 46.3187 38.6099 51.0151 38.6099Z" fill="#FC581F"/>
<path fill-rule="evenodd" clip-rule="evenodd" d="M51.0151 60.0119C55.7115 60.0119 59.5187 56.1612 59.5187 51.4111C59.5187 46.661 55.7115 42.8103 51.0151 42.8103C46.3187 42.8103 42.5115 46.661 42.5115 51.4111C42.5115 56.1612 46.3187 60.0119 51.0151 60.0119Z" fill="#FC581F"/>
<path d="M29.8618 38.6099C34.5576 38.6099 38.3643 34.7597 38.3643 30.0103C38.3643 25.2608 34.5576 21.4106 29.8618 21.4106C25.1661 21.4106 21.3594 25.2608 21.3594 30.0103C21.3594 34.7597 25.1661 38.6099 29.8618 38.6099Z" fill="#FC7446"/>
<path d="M29.8618 38.6099C34.5576 38.6099 38.3643 34.7597 38.3643 30.0103C38.3643 25.2608 34.5576 21.4106 29.8618 21.4106C25.1661 21.4106 21.3594 25.2608 21.3594 30.0103C21.3594 34.7597 25.1661 38.6099 29.8618 38.6099Z" stroke="#FC7446"/>
<path fill-rule="evenodd" clip-rule="evenodd" d="M29.8496 60.0119C34.5454 60.0119 38.3521 56.1612 38.3521 51.4111C38.3521 46.661 34.5454 42.8103 29.8496 42.8103C25.1539 42.8103 21.3472 46.661 21.3472 51.4111C21.3472 56.1612 25.1539 60.0119 29.8496 60.0119Z" fill="#FC7446"/>
<path fill-rule="evenodd" clip-rule="evenodd" d="M9.45015 60.0119C14.1466 60.0119 17.9538 56.1612 17.9538 51.4111C17.9538 46.661 14.1466 42.8103 9.45015 42.8103C4.75373 42.8103 0.946533 46.661 0.946533 51.4111C0.946533 56.1612 4.75373 60.0119 9.45015 60.0119Z" fill="#FC8E6A"/>
</svg>
